<?xml version="1.0" encoding="UTF-8"?> <svg xmlns="http://www.w3.org/2000/svg" width="490" height="509" viewBox="0 0 490 509" fill="none"> <path d="M281.209 262.495C292.428 291.461 317.951 380.617 359.525 383.031C377.256 384.06 448.421 260.837 453.426 232.071C453.851 229.627 447.395 227.616 445.515 225.954C438.239 219.519 374.813 305.239 362.373 317.554C356.579 316.545 369.314 288.85 354.474 284.065C350.35 282.736 345.985 276.616 349.333 269.926C356.919 254.765 340.335 246.79 335.319 234.221" stroke="black" stroke-width="2" stroke-linecap="square" stroke-linejoin="round"></path> <path d="M459.645 201.214C453.633 196.96 451.743 213.403 450.873 216.784C450.873 216.784 459.645 222.367 465.358 229.87C474.066 241.305 479.536 269.136 488.857 258.195C492.004 254.5 477.828 214.079 459.645 201.214Z" fill="#FFA64D"></path> <path d="M294.061 308.933C263.834 333.352 206.772 415.15 179.818 426.71C177.646 427.641 178.008 404.613 177.005 401.224C174.566 392.988 160.706 385.709 153.094 391.422C151.366 392.719 155.45 383.17 156.298 382.148C161.726 375.6 172.212 377.145 176.458 370.461C181.072 363.197 174.523 349.873 189.947 336.763C215.654 314.912 222.081 290.49 271.556 251.93" stroke="black" stroke-width="2" stroke-linecap="square" stroke-linejoin="round"></path> <path d="M170.66 430.646C160.386 446.088 143.675 465.296 129.535 483.291C124.16 490.131 117.975 477.382 120.797 472.145C132.105 451.158 148.816 428.021 160.344 403.6" stroke="black" stroke-width="2" stroke-linecap="square" stroke-linejoin="round"></path> <path d="M319.136 230.469C303.787 241.907 294.367 250.391 280.213 259.641C266.767 242.565 250.491 203.43 246.245 161.45C242.706 161.45 240.964 162.236 238.46 164.296C230.676 170.7 222.672 173.77 215.107 168.565C207.022 163.003 201.47 173.157 192.461 174.969C185.384 176.392 174.374 168.548 179.723 164.296C183.303 161.45 189.15 164.497 189.15 153.726C189.15 140.487 183.812 144.201 171.938 141.527C159.452 138.714 181.15 136.546 183.969 136.546C185.655 136.429 189.28 136.095 191.045 135.834L186.092 118.046C201.511 115.146 223.543 106.253 239.875 100.258L247.66 116.623C250.474 115.611 250.63 116.075 253.322 115.2C258.884 113.391 266.538 112.354 272.429 112.354C282.071 112.354 287.487 119.608 290.829 128.008C293.659 135.123 299.873 152.433 309.936 153.623C321.966 155.046 329.606 152.978 333.997 166.431C335.791 171.927 336.53 180.109 338.243 185.642C340.314 192.331 346.938 191.739 352.397 194.18L352.595 194.269C358.486 196.902 368.112 201.205 360.889 207.699C349.131 218.27 331.829 221.009 319.136 230.469Z" fill="#FFA64D"></path> <path d="M158.363 141.391C128.274 151.065 74.2516 159.133 66.6039 159.133M45.7507 161.863C41.8702 161.863 34.6282 147.532 31.8477 150.944L40.1879 169.422C82.3338 171.224 126.26 162.545 168.095 162.545" stroke="black" stroke-width="2" stroke-linecap="square" stroke-linejoin="round"></path> <path d="M57.5547 160.027C51.5283 158.099 46.8487 151.672 45.5022 151.672C43.4941 151.672 45.5038 158.741 48.8496 161.955" stroke="black" stroke-width="2" stroke-linecap="square" stroke-linejoin="round"></path> <path d="M139.818 140.062C131.279 113.291 119.182 58.3022 113.488 49.6199C110.056 44.3868 -1.81378 67.1226 1.05421 72.7731C6.32231 83.1524 31.9005 141.789 38.4648 151.672" stroke="black" stroke-width="2" stroke-linecap="square" stroke-linejoin="round"></path> <path d="M196.375 133.678C210.761 129.336 224.342 126.741 237.506 119.539" stroke="black" stroke-width="2" stroke-linecap="square" stroke-linejoin="round"></path> <path d="M217.285 13.5297C207.637 16.7651 211.358 26.0994 223.419 34.0118L227.675 27.538C239.735 34.0118 243.993 34.0118 242.574 49.1174C242.357 51.4234 243.777 52.4694 243.993 54.8719C244.702 62.7843 245.978 63.9926 248.249 64.2229C251.783 64.5812 256.053 52.7139 261.728 57.7491C269.836 64.9422 252.506 69.9774 257.472 75.7319C264.046 79.3284 275.676 84.1668 284.43 81.4863C295.168 78.1984 299.13 67.033 295.071 58.2884C290.814 49.1174 276.871 43.4342 280.173 41.9243C288.627 38.0581 296.49 27.538 287.267 22.5029C284.823 21.1684 275.409 18.4314 282.011 17.65C287.338 17.0196 292.754 15.1625 293.652 8.83595C295.242 -2.35843 278.045 -0.515119 269.644 1.57245C262.192 3.42442 257.685 7.38947 250.853 7.38947C243.705 7.38947 228.352 -7.2698 224.191 5.28888C221.489 13.4437 224.65 11.0598 217.285 13.5297Z" fill="#FFA64D"></path> <path d="M186.091 128.536C183.601 122.531 151.532 20.6562 146.736 23.1829C136.47 28.5911 125.268 39.6666 116.682 46.8335" stroke="black" stroke-width="2" stroke-linecap="square" stroke-linejoin="round"></path> <path d="M216.941 33.4199C210.373 41.6521 211.685 44.3834 211.09 54.5556C210.835 58.9119 205.454 64.1966 202.147 66.6641C197.097 70.4323 192.898 74.3694 200.657 74.3694C210.933 74.3694 203.537 89.5988 209.599 89.9374C218.711 90.4463 228.881 85.7797 234.936 80.0305" stroke="black" stroke-width="2" stroke-linecap="square" stroke-linejoin="round"></path> <path d="M229.793 92.5449C234.934 97.6863 238.79 102.828 242.646 110.54" stroke="black" stroke-width="2" stroke-linecap="square" stroke-linejoin="round"></path> <path d="M222.08 25.707C225.714 27.9192 232.286 32.0836 236.182 38.3794C241.126 46.368 235.367 58.2577 240.726 62.0033C243.49 63.9353 248.724 51.7591 254.515 54.6502C259.184 56.9812 257.274 63.0682 253.81 65.7581C248.353 69.9955 250.623 73.0077 252.4 77.1006C256.454 86.4427 262.053 96.9739 268.353 105.399" stroke="black" stroke-width="2" stroke-linecap="square" stroke-linejoin="round"></path> <path d="M8.71289 60.4117L39.2652 39.8679L128.251 24.4219" stroke="black" stroke-width="2" stroke-linecap="square"></path> <path d="M92.2611 450.454L119.254 497.551C115.755 500.881 107.857 507.827 104.258 508.968C99.759 510.396 83.2637 461.872 83.2637 454.736C83.2637 449.027 89.262 449.503 92.2611 450.454Z" fill="#FFA64D"></path> <path d="M219.737 45C216.314 50.3805 214.307 53.6736 216.431 59.7543C216.903 61.1058 218.812 64.2166 220.894 62.4922C225.326 58.8212 225.857 53.2587 221.835 49.5577" stroke="black" stroke-width="2" stroke-linecap="square" stroke-linejoin="round"></path> <path d="M224.559 51C230.309 52 241.22 52 247.559 52" stroke="black" stroke-width="2" stroke-linecap="square" stroke-linejoin="round"></path> <path d="M71.6832 39.1879C65.5287 46.0837 54.3785 52.5546 51.6089 58.7314C50.6708 60.8253 63.1401 98.4888 65.9245 108.288C67.3642 112.476 68.655 107.634 70.9634 107.861C72.0391 107.967 73.2002 108.663 74.5624 108.288C75.7065 107.973 75.9006 106.85 77.0618 106.601C78.629 106.265 79.3724 108.084 80.961 107.861C82.2839 107.676 82.6506 106.599 83.9203 106.194C86.2115 105.463 86.5447 107.008 90.0839 106.582C90.0839 96.1897 73.3241 55.9394 73.8839 54.5823C74.4438 53.2251 88.24 38.8389 92.5586 35" stroke="black" stroke-width="2" stroke-linecap="square" stroke-linejoin="round"></path> </svg> 